<?xml version="1.0" encoding="utf-8"?>
<!-- Generator: Adobe Illustrator 27.7.0, SVG Export Plug-In . SVG Version: 6.00 Build 0)  -->
<svg version="1.1" id="Layer_1" xmlns="http://www.w3.org/2000/svg" xmlns:xlink="http://www.w3.org/1999/xlink" x="0px" y="0px"
	 viewBox="0 0 750 750" style="enable-background:new 0 0 750 750;" xml:space="preserve">
<style type="text/css">
	.st0{fill:#009E5F;}
</style>
<g>
	<path class="st0" d="M477.44,583.01c-3.47,0-6.91-0.92-9.92-2.66L265.19,463.53c-4.08-1.64-7.52-4.63-9.73-8.47
		c-1.13-1.95-1.93-4.09-2.34-6.36c-0.28-1.34-0.42-2.7-0.42-4.05V305.27c0-3.42,0.89-6.8,2.57-9.78c0.07-0.13,0.14-0.26,0.22-0.39
		c0.14-0.26,0.3-0.5,0.46-0.74c0.13-0.2,0.26-0.39,0.4-0.58c1.66-2.42,3.81-4.41,6.39-5.89l204.79-118.24
		c3.02-1.74,6.45-2.66,9.92-2.66c7.07,0,13.66,3.8,17.2,9.92c5.47,9.49,2.21,21.65-7.26,27.13L331.9,293.81
		c-4.11,2.37-6.56,6.62-6.56,11.37s2.45,9,6.56,11.37l55.31,31.93c1.99,1.15,4.26,1.76,6.56,1.76s4.57-0.61,6.56-1.76l66.88-38.61
		c3.01-1.74,6.45-2.66,9.92-2.66c7.07,0,13.66,3.8,17.2,9.92c5.47,9.49,2.21,21.66-7.27,27.14l-33.89,19.56
		c-4.11,2.37-6.56,6.62-6.56,11.37s2.45,9,6.56,11.37l34.2,19.75c1.79,1.04,3.36,2.3,4.68,3.75c0.16,0.17,0.31,0.34,0.46,0.51
		c0.01,0.02,0.03,0.03,0.04,0.05c2.85,3.57,4.36,7.87,4.36,12.42v136.2c0.95,4.73,0.16,9.6-2.26,13.82
		C491.1,579.21,484.51,583.01,477.44,583.01z M315.51,356.39c-10.97,0-22.82,8.72-22.82,22.82v41.2c0,8.11,4.36,15.67,11.39,19.72
		l118.68,68.52c3.56,2.06,7.37,3.1,11.34,3.1c10.97,0,22.82-8.72,22.82-22.82v-41.19c0-8.11-4.36-15.67-11.39-19.72l-118.68-68.52
		C323.29,357.43,319.48,356.39,315.51,356.39z"/>
	<path class="st0" d="M477.44,174.98c4.09,0,8.08,2.13,10.28,5.93c3.27,5.67,1.33,12.92-4.34,16.2L327.9,286.88
		c-14.09,8.13-14.08,28.46,0,36.59l55.31,31.93c3.27,1.89,6.92,2.83,10.56,2.83c3.65,0,7.3-0.94,10.56-2.83l66.88-38.61
		c1.87-1.08,3.9-1.59,5.92-1.59c4.09,0,8.08,2.13,10.28,5.93c3.27,5.67,1.33,12.92-4.35,16.2l-33.89,19.56
		c-14.09,8.13-14.09,28.46,0,36.59l31.81,18.36l2.39,1.38c1.1,0.64,2.07,1.42,2.87,2.32c0.01,0.01,0.01,0.01,0.02,0.02
		c0.02,0.01,0.03,0.03,0.04,0.04c1.63,2.04,2.61,4.61,2.61,7.43l0,137.1c0,0,0,0,0,0c0.76,2.91,0.42,6.12-1.2,8.94
		c-2.2,3.8-6.19,5.93-10.28,5.93c-2.02,0-4.05-0.51-5.92-1.59L268.63,456.28c-0.01,0-0.01,0-0.02-0.01h-0.01
		c-2.54-0.91-4.77-2.7-6.22-5.21c-0.71-1.22-1.17-2.52-1.41-3.84v-0.01c-0.18-0.82-0.28-1.68-0.28-2.56V305.26
		c0-2.13,0.56-4.12,1.54-5.85c0.01-0.01,0.01-0.02,0.02-0.03c0.05-0.1,0.1-0.19,0.16-0.28c0.05-0.1,0.1-0.19,0.17-0.28
		c0.1-0.16,0.2-0.31,0.31-0.46c0.96-1.42,2.25-2.64,3.83-3.55l204.8-118.24C473.39,175.49,475.42,174.98,477.44,174.98
		 M434.1,519.75c16.07,0,30.82-12.86,30.82-30.82v-41.19c0-10.99-5.87-21.15-15.39-26.65l-118.68-68.53
		c-4.96-2.86-10.22-4.17-15.34-4.17c-16.07,0-30.82,12.86-30.82,30.82v41.2c0,10.99,5.87,21.15,15.39,26.65l118.68,68.52
		C423.72,518.44,428.98,519.75,434.1,519.75 M477.44,158.98c-4.88,0-9.69,1.29-13.92,3.73l-204.8,118.24
		c-3.53,2.03-6.62,4.87-8.93,8.21c-0.17,0.24-0.34,0.48-0.5,0.73c-0.27,0.39-0.52,0.79-0.75,1.21c-0.09,0.16-0.18,0.32-0.27,0.48
		c-2.34,4.16-3.58,8.88-3.58,13.66v139.39c0,1.87,0.19,3.75,0.57,5.59c0.59,3.12,1.69,6.09,3.27,8.82h0
		c3.01,5.21,7.62,9.3,13.1,11.65l201.89,116.56c4.23,2.44,9.04,3.73,13.92,3.73c9.91,0,19.16-5.33,24.13-13.91
		c0.01-0.02,0.02-0.03,0.03-0.05c3.26-5.67,4.41-12.17,3.33-18.54l0-135.47c0-6.3-2.17-12.49-6.11-17.42
		c-0.03-0.04-0.06-0.07-0.09-0.11c-0.3-0.38-0.62-0.74-0.96-1.08c-1.83-1.96-3.96-3.65-6.34-5.03c-0.02-0.01-0.03-0.02-0.05-0.03
		l-2.39-1.38l-31.81-18.36c-2.23-1.29-2.56-3.33-2.56-4.44c0-1.11,0.33-3.15,2.56-4.44l33.89-19.56
		c13.3-7.68,17.88-24.75,10.21-38.05c-4.98-8.61-14.23-13.94-24.14-13.94c-4.88,0-9.69,1.29-13.92,3.73l-66.87,38.61
		c-0.78,0.45-1.66,0.69-2.56,0.69c-0.9,0-1.79-0.24-2.56-0.69l-55.31-31.93c-2.23-1.29-2.56-3.33-2.56-4.44
		c0-1.11,0.33-3.15,2.56-4.44l155.48-89.76c13.3-7.69,17.87-24.76,10.2-38.05C496.6,164.32,487.35,158.98,477.44,158.98
		L477.44,158.98z M434.1,503.75c-2.54,0-5.01-0.68-7.34-2.03L308.08,433.2c-4.56-2.63-7.39-7.53-7.39-12.79v-41.2
		c0-9.15,7.69-14.82,14.82-14.82c2.54,0,5.01,0.68,7.34,2.03l118.68,68.53c4.56,2.63,7.39,7.53,7.39,12.79v41.19
		C448.92,498.08,441.23,503.75,434.1,503.75L434.1,503.75z"/>
</g>
</svg>
